<svg width="169" height="116" viewBox="0 0 169 116" fill="none" xmlns="http://www.w3.org/2000/svg">
<path d="M51.2 0.770884C38.8 4.63755 33.6 20.6376 41.3333 31.4376C45.4667 37.3042 51.2 39.8376 58.6667 39.1709C78 37.3042 83.7333 14.9042 67.8667 3.17088C63.8667 0.104218 56.6667 -0.829116 51.2 0.770884Z" fill="black"/>
<path d="M117.733 0.77077C103.6 3.7041 93.3333 11.0374 88.5333 21.4374C83.2 32.6374 84.6666 44.2374 92.5333 52.5041C98.4 58.7708 102.8 61.3041 119.2 67.3041C134.4 72.7708 140 76.6374 140 81.4374C140 85.0374 135.6 89.8374 131.2 90.9041C122.667 93.0374 104.4 88.9041 96.6666 83.0374C94.2666 81.1708 93.7333 81.7041 87.0666 91.3041C78.9333 102.904 78.6666 102.371 92.6666 108.771C116.8 119.837 143.467 117.971 158.267 104.371C161.6 101.304 164.933 97.4374 166 95.5708C168.8 89.8374 169.733 81.1708 168 74.2374C164.933 61.4374 154.933 53.7041 131.067 45.4374C118.8 41.3041 114.667 38.2374 114.667 33.5708C114.667 28.3708 119.2 25.5708 128.667 25.0374C135.6 24.5041 138.4 25.0374 144.667 27.9708L152.133 31.3041L158.667 21.0374L165.2 10.9041L161.6 8.5041C152.533 2.37077 129.333 -1.62923 117.733 0.77077Z" fill="black"/>
<path d="M0 58.104V114.104H14.6667H29.3333V58.104V2.104H14.6667H0V58.104Z" fill="black"/>
</svg>
