<svg xmlns="http://www.w3.org/2000/svg" version="1.1" xmlns:xlink="http://www.w3.org/1999/xlink" xmlns:svgjs="http://svgjs.dev/svgjs" width="1440" height="560" preserveAspectRatio="none" viewBox="0 0 1440 560"><g mask="url(&quot;#SvgjsMask1020&quot;)" fill="none"><rect width="1440" height="560" x="0" y="0" fill="url(&quot;#SvgjsLinearGradient1021&quot;)"></rect><path d="M0 0L674.67 0L0 144.91z" fill="rgba(255, 255, 255, .1)"></path><path d="M0 144.91L674.67 0L960.75 0L0 258.53z" fill="rgba(255, 255, 255, .075)"></path><path d="M0 258.53L960.75 0L1214.91 0L0 384.4z" fill="rgba(255, 255, 255, .05)"></path><path d="M0 384.4L1214.91 0L1228.8100000000002 0L0 456.80999999999995z" fill="rgba(255, 255, 255, .025)"></path><path d="M1440 560L1008.63 560L1440 511.31z" fill="rgba(0, 0, 0, .1)"></path><path d="M1440 511.31L1008.63 560L523.77 560L1440 499.72z" fill="rgba(0, 0, 0, .075)"></path><path d="M1440 499.72L523.77 560L347.42999999999995 560L1440 393.02000000000004z" fill="rgba(0, 0, 0, .05)"></path><path d="M1440 393.02L347.43000000000006 560L242.96000000000006 560L1440 153.86999999999998z" fill="rgba(0, 0, 0, .025)"></path></g><defs><mask id="SvgjsMask1020"><rect width="1440" height="560" fill="#ffffff"></rect></mask><linearGradient x1="15.28%" y1="-39.29%" x2="84.72%" y2="139.29%" gradientUnits="userSpaceOnUse" id="SvgjsLinearGradient1021"><stop stop-color="rgba(233, 221, 203, 1)" offset="0"></stop><stop stop-color="rgba(194, 161, 111, 1)" offset="1"></stop></linearGradient></defs></svg>