<svg xmlns="http://www.w3.org/2000/svg" version="1.1" xmlns:xlink="http://www.w3.org/1999/xlink" xmlns:svgjs="http://svgjs.dev/svgjs" width="1440" height="560" preserveAspectRatio="none" viewBox="0 0 1440 560"><g mask="url(&quot;#SvgjsMask1056&quot;)" fill="none"><rect width="1440" height="560" x="0" y="0" fill="url(&quot;#SvgjsLinearGradient1057&quot;)"></rect><path d="M0 0L579.05 0L0 5.68z" fill="rgba(255, 255, 255, .1)"></path><path d="M0 5.68L579.05 0L719.75 0L0 219.07z" fill="rgba(255, 255, 255, .075)"></path><path d="M0 219.07L719.75 0L752.17 0L0 293.6z" fill="rgba(255, 255, 255, .05)"></path><path d="M0 293.6L752.17 0L955.51 0L0 329.74z" fill="rgba(255, 255, 255, .025)"></path><path d="M1440 560L1275.76 560L1440 313.93z" fill="rgba(0, 0, 0, .1)"></path><path d="M1440 313.93L1275.76 560L1146.34 560L1440 176.89000000000001z" fill="rgba(0, 0, 0, .075)"></path><path d="M1440 176.89L1146.3400000000001 560L726.7500000000002 560L1440 152.88z" fill="rgba(0, 0, 0, .05)"></path><path d="M1440 152.88L726.75 560L599.36 560L1440 106.28z" fill="rgba(0, 0, 0, .025)"></path></g><defs><mask id="SvgjsMask1056"><rect width="1440" height="560" fill="#ffffff"></rect></mask><linearGradient x1="15.28%" y1="-39.29%" x2="84.72%" y2="139.29%" gradientUnits="userSpaceOnUse" id="SvgjsLinearGradient1057"><stop stop-color="rgba(252, 250, 248, 1)" offset="0"></stop><stop stop-color="rgba(194, 161, 111, 1)" offset="1"></stop></linearGradient></defs></svg>