<svg xmlns="http://www.w3.org/2000/svg" version="1.1" xmlns:xlink="http://www.w3.org/1999/xlink" xmlns:svgjs="http://svgjs.dev/svgjs" width="1440" height="560" preserveAspectRatio="none" viewBox="0 0 1440 560"><g mask="url(&quot;#SvgjsMask1764&quot;)" fill="none"><rect width="1440" height="560" x="0" y="0" fill="url(&quot;#SvgjsLinearGradient1765&quot;)"></rect><path d="M0 0L396.28 0L0 238.41z" fill="rgba(255, 255, 255, .1)"></path><path d="M0 238.41L396.28 0L569.89 0L0 356.95z" fill="rgba(255, 255, 255, .075)"></path><path d="M0 356.95L569.89 0L732.0899999999999 0L0 423.7z" fill="rgba(255, 255, 255, .05)"></path><path d="M0 423.7L732.0899999999999 0L909.02 0L0 465.41999999999996z" fill="rgba(255, 255, 255, .025)"></path><path d="M1440 560L935.51 560L1440 373.11z" fill="rgba(0, 0, 0, .1)"></path><path d="M1440 373.11L935.51 560L656.5999999999999 560L1440 166.74z" fill="rgba(0, 0, 0, .075)"></path><path d="M1440 166.74L656.5999999999999 560L550.9699999999999 560L1440 134.56z" fill="rgba(0, 0, 0, .05)"></path><path d="M1440 134.56L550.9699999999999 560L181.62999999999994 560L1440 50.39z" fill="rgba(0, 0, 0, .025)"></path></g><defs><mask id="SvgjsMask1764"><rect width="1440" height="560" fill="#ffffff"></rect></mask><linearGradient x1="15.28%" y1="-39.29%" x2="84.72%" y2="139.29%" gradientUnits="userSpaceOnUse" id="SvgjsLinearGradient1765"><stop stop-color="rgba(252, 250, 248, 1)" offset="0"></stop><stop stop-color="rgba(233, 221, 203, 1)" offset="0.49"></stop></linearGradient></defs></svg>