<svg xmlns="http://www.w3.org/2000/svg" version="1.1" xmlns:xlink="http://www.w3.org/1999/xlink" xmlns:svgjs="http://svgjs.dev/svgjs" width="1440" height="560" preserveAspectRatio="none" viewBox="0 0 1440 560"><g mask="url(&quot;#SvgjsMask1078&quot;)" fill="none"><rect width="1440" height="560" x="0" y="0" fill="url(&quot;#SvgjsLinearGradient1079&quot;)"></rect><path d="M1440 0L910.95 0L1440 80.92z" fill="rgba(255, 255, 255, .1)"></path><path d="M910.95 0L1440 80.92L1440 84.41L761.6600000000001 0z" fill="rgba(255, 255, 255, .075)"></path><path d="M761.6600000000001 0L1440 84.41L1440 321.09000000000003L596.4000000000001 0z" fill="rgba(255, 255, 255, .05)"></path><path d="M596.4000000000001 0L1440 321.09000000000003L1440 474.49L228.30000000000007 0z" fill="rgba(255, 255, 255, .025)"></path><path d="M0 560L434.21 560L0 343.33000000000004z" fill="rgba(0, 0, 0, .1)"></path><path d="M0 343.33000000000004L434.21 560L613.22 560L0 325.61z" fill="rgba(0, 0, 0, .075)"></path><path d="M0 325.61L613.22 560L707.3000000000001 560L0 234.05z" fill="rgba(0, 0, 0, .05)"></path><path d="M0 234.05L707.3000000000001 560L805.8700000000001 560L0 159.44z" fill="rgba(0, 0, 0, .025)"></path></g><defs><mask id="SvgjsMask1078"><rect width="1440" height="560" fill="#ffffff"></rect></mask><linearGradient x1="15.28%" y1="-39.29%" x2="84.72%" y2="139.29%" gradientUnits="userSpaceOnUse" id="SvgjsLinearGradient1079"><stop stop-color="rgba(252, 250, 248, 1)" offset="0"></stop><stop stop-color="rgba(194, 161, 111, 1)" offset="1"></stop></linearGradient></defs></svg>